<?xml version="1.0" encoding="utf-8"?>
<!-- Generator: Adobe Illustrator 25.2.0, SVG Export Plug-In . SVG Version: 6.00 Build 0)  -->
<svg version="1.1" id="Livello_1" xmlns="http://www.w3.org/2000/svg" xmlns:xlink="http://www.w3.org/1999/xlink" x="0px" y="0px"
	 viewBox="0 0 422 452.9" style="enable-background:new 0 0 422 452.9;" xml:space="preserve">
<g>
	<g>
		<path d="M212.8,399.3c-1.6-1.5-1.8-2.5,0.1-4.3c6.4-6,12.8-12.1,18.5-18.7c2.7-3.1,4-7.4,6-11.2c1.6-1.5,3.2-3,4.9-4.4
			c0.3-0.3,1.5-0.1,1.6,0.2c0.3,0.8,0.3,1.7,0.5,2.6c0.6-0.8,1.2-1.5,1.8-2.3c1-1.3,2.3-2.5,3.1-4c0.7-1.2,0.9-2.7,1.3-4.1
			c-1.1,0.6-2.1,1.2-3.2,1.8c-0.5,0.3-1,0.5-1.5,0.7c-0.1-0.3-0.4-0.6-0.3-0.8c0.8-1.7,1.7-3.4,2.5-5.1c0.7-1.4,2.3-3.2,1.9-4.1
			c-1.9-4.6,4.2-6.2,3.6-10.2c0-0.2,0.4-0.5,0.6-0.6c6-3.4,6.3-10.3,9.4-15.5c2.2-3.6,3.6-7.8,5-11.9c2-5.5,6.5-10,6.3-16.3
			c0-0.5,0.6-1,1-1.4c1-1.3,2.4-2.5,3.1-3.9c1.5-3.2,2.8-6.5,4-9.8c1.4-3.8,0.1-6.6-3.5-6.3c-5.6,0.3-9.9-2.5-14.5-4.9
			c-1.9-1-4.2-2.3-5.2-4.1c-3.9-7.1-4.6-14.3,0-21.5c0.3-0.5-0.3-2-0.9-2.6c-2.4-2.3-5.7-4-7.2-6.8c-2.5-4.8-4-10.1-5.6-15.4
			c-1.4-4.8-2.9-9.8-3.3-14.8c-0.9-11.6-1.1-23.2-1.7-34.7c0-0.3-0.8-0.9-1.1-0.8c-5.6,2.5-10.9,1.5-15.3-2.9
			c-0.8-0.8-1.8-1.6-2.8-2c-2.7-1.2-5.5-2.2-8.3-3.2c-0.6-0.2-1.5-0.1-1.9,0.2c-2.8,2.6-5.4,5.3-8.1,8c-0.5,0.5-1,0.9-1.4,1.4
			c-1.5,2.3-3.2,4.6-4.5,7.1c-1.7,3.1-3.8,6.3-4.3,9.7c-0.5,3.4,0.9,7.1,1.6,10.7c0.2,0.8,0.9,1.7,1.5,2c2.1,0.8,4.3,1.5,6.6,1.7
			c3.4,0.4,6.8,0.2,10.2,0.6c2,0.2,3.9,1.2,5.9,1.3c8.1,0.2,13.9,4.4,18.6,10.4c1.5,1.9,1.8,4.6,3.3,6.5c3,4,4.5,8.1,3.2,13.3
			c-1.3,5.1-2.6,9.8-8,12.4c-8.2,4-14.5,9.9-19,18.1c-2.4,4.3-2.3,10.6-8.4,12.5c-0.1,0-0.1,0.6-0.2,0.8c-2.3,5.5-1.8,12.2-7.1,16.4
			c-0.1,0.1-0.2,0.3-0.2,0.5c0.3,2.8,0.9,5.5,1,8.3c0.1,3.2,0.4,6.4-0.3,9.5c-0.6,2.5-2.6,4.6-3.6,7.1c-0.6,1.4-0.6,4.4-0.6,4.4
			c5.3,0.8,2.6,4,1.9,6.5c-0.3,1-0.6,2.1-0.9,3.1c1-0.6,2-1.2,3-1.9c0.4-0.3,0.5-0.9,0.9-1.2c2.9-2.4,6.1-4.5,8.6-7.3
			c2.2-2.4,8-0.9,7.2-6.7c-0.5-3.8-0.6-7.7-0.6-11.5c0-1.8,0.6-3.6,0.9-5.3c1.2,0.8,2.8,1.3,3.5,2.4c3.1,4.6,6.2,9.2,8.7,14.1
			c2.4,4.7,4.4,9.7,5.8,14.7c1.9,7,4.5,14,3,21.6c-1.1,5.7-1.7,11.6-2.5,17.4c-0.8,1.2-1.7,2.2-2.3,3.5c-2.7,5.5-7.9,7.3-13.1,8.7
			c-1.2,0.3-3.8-0.9-4.3-2.1c-1.4-3.3-2.3-6.9-2.9-10.4c-1.5-9.3,0.9-18.3,2.4-27.4c0.3-2.2,1.2-4.4,1.8-6.6c0.4-1.3,1.3-2.7,1-3.8
			c-0.2-0.6-2.4-1.4-3.4-1.1c-1.1,0.3-2.2,1.6-2.9,2.6c-0.6,0.9-0.8,2.1-0.8,3.1c0,4.7-1.5,8.8-3.7,13c-1.6,3.1-1.7,6.9-2.1,10.4
			c-0.8,7.6-5,13.8-9,19.9c-3.4,5.1-13.9,4.9-17.1-0.5c-4.1-7.1-7.4-14.7-10.9-22.1c-0.5-1,0-2.5,0.4-3.7c2-6.6,4-13.3,6.2-19.8
			c2-5.8,4.3-11.4,6.5-17.1c4.2-10.6,8.6-21.1,11.1-32.4c1.4-6.2,4.1-12.1,6.4-18.2c1.4-3.9,2.9-7.8,4.7-11.5
			c1.6-3.3,3.9-6.4,5.7-9.7c1.9-3.7,3.6-7.5,5.3-11.2c0.3-0.6,0-1.5,0-2.2c-0.7,0.2-1.7,0.3-2.1,0.8c-2,2.6-3.7,5.3-5.7,7.9
			c-1.9,2.4-3.5,5.4-6,6.9c-3.7,2.2-2.3,5.6-3,8.4c-2.2,8.5-4,17-5.9,25.6c0,0.1-0.1,0.2-0.1,0.3c-1.6,3.2-3.1,6.4-4.7,9.6
			c-5.2,10.8-10.4,21.6-15.8,32.3c-1.4,2.8-3.9,4.9-5.6,7.5c-1.1,1.7-1.6,3.7-2.2,5.7c-1.1,3.8-2.8,6.8-5.8,9.6
			c-2.2,2.1-5.3,4.2-6.5,6.5c-1.7,3.2-3.3,1.7-4.8,1.4c-8-1.7-14.4,4.1-13.4,12.2c0.4,3.3,0.2,6.7,0.4,10c0.1,1.6,1.4,3.2,1.2,4.8
			c-0.3,2.3-1.5,4.5-1.9,6.8c-0.5,2.4-1.2,5.1-0.7,7.3c1.5,6-2,10.6-3.3,15.8c-1.1,4.4-1.7,8.9-3.3,13.1
			c-2.1,5.6-4.7,11.4-11.1,13.4c-3.2,1-7,1.3-10.4,0.8c-7-1.2-14.8-1.5-19.8-7.4c-3.8-4.5-6.7-9.6-10-14.6c-0.3-0.4-0.1-1.1-0.1-1.7
			c0.5,0.1,1.1,0.1,1.6,0.3c0.6,0.2,1.7,0.8,1.8,0.7c0.7-1.2,1.3-2.4,1.7-3.7c0.3-0.9-0.2-2.1,0.2-2.8c1-1.7,0.7-2-1-3.2
			c-1.3-0.9-1.3-4-1.6-6.1c-0.4-3.3-0.5-6.6-0.5-9.9c0-2,1.4-4.4,0.6-5.9c-1.2-2.2-0.3-2.7,1.2-3.3c0.7-0.3,1.8-0.7,2.2-0.4
			c0.6,0.5,0.8,1.6,1.1,2.4c0.4,1.1,0.8,2.2,1.2,3.4c0.3,0.9,0.7,1.9,0.7,2.8c-0.2,5.1,2.4,8.8,5.4,12.5c1.7,2,2.7,4.5,4.2,6.8
			c0.7,1.1,1.1,3.3,3.1,1.1c0.2-0.2,0.7,0,1.1,0.1c1.1,0.3,2.2,0.7,3.3,1c-0.3-2.3-0.1-4.8-1.1-6.8c-1.5-2.9-4.4-4.7-4.1-9
			c0.2-2.9-2.2-6-3.5-9.1c-0.1-0.3-0.3-0.9-0.2-1c3.3-2,0.6-3.5-0.3-5.3c-0.3-0.7-0.5-1.5-0.6-2.2c-0.4-4.2-0.9-8.4-1.2-12.7
			c-0.1-1.2,0.6-2.4,0.9-3.6c0.1-0.5,0.4-1.1,0.4-1.6c-0.4-3.3-1.4-6.7-1.3-10c0.1-4.2,1.2-8.3,1.7-12.5c0.4-4.3,0.6-8.5,0.8-12.8
			c0.1-3.6,0.2-7.3,0.2-10.9c0-1.6,0.2-3.3-0.4-4.6c-0.4-0.8-2.4-1.7-3.3-1.4c-5.1,1.9-10.2,4.1-15.2,6.3c-1.4,0.6-2.7,1.6-3.6,2.7
			c-1.4,1.8-1.3,5.2-5.1,4c-0.3-0.1-0.8,1-1.3,1.5c-1.9,1.6-3.1,4.8-6.6,2.8c-0.4-0.2-1.5,0.4-2.1,0.8c-3.3,1.8-6.9,3.4-9.8,5.7
			c-2.1,1.7-3.3,4.5-4.8,6.9c-2.4,3.8-5.5,6.2-10.1,6.7c-1.7,0.2-3.4,1.8-5.1,1.9c-2.3,0.2-4.6-0.3-6.9-0.5c0.5-0.8,0.9-1.7,1.4-2.5
			c0.2-0.4,0.7-0.6,1-0.9c-0.5-0.1-1.1-0.3-1.6-0.3c-2.2,0.1-4.3,0.4-6.5,0.5c-1.3,0.1-3.3-1.3-3.1,1.6c-2-1-4-1.8-5.8-3
			c-0.9-0.6-1.5-1.7-2.3-2.6l0,0c-0.5-1.5,2.2-4.2-1.5-4.6c0.2-0.4,0.4-1,0.7-1c2-0.3,4.6-1.4,5.9-0.6c1.3,0.9,3.6-3.7,3.4,0.7
			c1.2-0.4,2.4-0.9,3.6-1.3c3.3-1.1,6.8-1.7,9.8-3.2c5.3-2.6,10.3-6,15.6-8.7c7.5-3.9,14.3-8.8,21.1-13.8c5.4-4,9.5-9,14.3-13.5
			c3.6-3.3,4.7-7.7,7.8-10.8c4.3-4.3,7-9.3,9-14.8c2.2-6.1,3.4-12.6,5.2-18.8c1.1-3.8,2.1-7.8,3.9-11.3c1-1.9,3.4-3.1,5.4-4.4
			c3.8-2.4,3.4-6,3.3-9.7c0-7.5,0.3-15.1,0.4-22.7c0-0.9-0.4-1.9-0.7-2.8c-0.9,0.4-2,0.7-2.8,1.3c-10.4,7.4-21.1,14.3-33.6,17.7
			c-1.1-0.5-2.2-1-3.4-1.5c-0.8-0.3-1.6-0.6-2.4-0.9c0.5,0.8,1,1.6,1.5,2.3c-7.3,2.5-14.7,4.3-22.3,1.8c-6.2-2.1-9.2-7.9-8-14.3
			c0.3-1.4,0.1-3,0.1-4.4c0-0.6,0.1-1.2,0.1-1.8c0.6,0.2,1.3,0.3,1.9,0.5c0.2,0.1,0.3,0.2,0.4,0.4c6.1,6.6,10.4,5.9,17.5,0.8
			c10.9-8,21.3-16.8,32.2-24.8c5.1-3.7,10.8-6.8,16.5-9.4c2.7-1.3,3.6-2.8,3.6-5.3c0-6,0-12,0-17.9c-0.1-21.3-0.2-42.6-0.4-63.9
			c0-0.8-0.3-1.8-0.8-2.5c-5.7-8.4-7.8-18.1-7.7-27.9c0.1-6,1.9-12.2,4-18c1.3-3.7,6.3-3.8,9.3-1c6.7,6.2,11.3,13.6,11.4,23
			c0.1,9.8-0.5,19.7-0.7,29.5c-0.2,8.2,0.1,16.6-0.8,24.7c-1.1,9.1,1.5,17.4,4.1,25.8c0.4,1.4,1.9,2.9,3.3,3.5
			c2.9,1.2,5.1,4.4,8.9,3.2c0.9-0.3,3.6,0,1.5,2.4c0,0.1,0.3,0.6,0.4,0.6c5.9-0.5,10.8,2.2,15.2,5.5c3.9,2.9,8.3,5.7,8.3,11.9
			c0,2.6,1.8,5.5,3.3,7.9c4.4,6.9,6.8,14.4,7.9,22.4c0.2,1.4-0.1,2.9-0.3,4.4c-0.8,5.2-1.2,10.6-2.5,15.7c-0.8,3.1-3.4,5.4-6.9,4.9
			c-5.1-0.7-10.5-0.9-15-3.1c-5.4-2.7-9.9-7.1-14.7-11c-3.3-2.7-6.5-5.7-9.5-8.9c-1.3-1.4-1.9-3.4-2.8-5.2c-0.2-0.4-0.6-0.8-0.8-1.1
			c-0.2,0.5-0.6,1-0.6,1.6c-0.1,2.7-0.1,5.4-0.1,8c-0.1,7.3-0.3,14.7-0.4,22c-0.1,2.8-0.2,5.6-0.4,8.4c-0.2,3.7-0.4,7.1,2,10.5
			c1.7,2.5,1.7,6.1,2.9,9c2.4,5.8,5.4,11.4,7.7,17.2c0.9,2.4,0.7,5.3,1.1,7.9c0.2,1,0.8,1.9,1.2,2.9c0.4-0.7,0.7-1.5,1.1-2.2
			c2.4-4.4,5-8.8,7.3-13.3c1.3-2.5,2-5.3,3.4-7.7c1.1-1.9,2.9-3.4,4.3-5.1c0.5-0.5,0.8-1.2,1.2-1.7c-0.5-0.2-1.3-0.2-1.4-0.5
			c-0.3-0.8-0.5-1.8-0.5-2.6c0.5-4.4,1.6-8.9,1.4-13.2c-0.2-3.9-0.3-4.5,3.6-3.9c0.7,0.1,1.7,0.2,2.3-0.2c4-2.3,6.8,0.3,9.1,2.6
			c2.8,2.8,5,6.2,7.6,9.2c0.7,0.8,1.7,1.3,2.6,1.8c0.3,0.2,0.8,0.1,1.2,0.1c-0.1-0.4,0.1-1-0.2-1.3c-3.6-4.5-4.2-10-4.6-15.4
			c-0.2-3.1,0.7-6.2,0.7-9.4c0-5.9,1.8-11.5,3.1-17.3c2-9.2,6.7-17.2,11.8-24.8c4.3-6.4,9.6-12.2,14-18.5c1-1.5,0.5-4.1,0.6-6.2
			c0.1-0.7,0.3-1.6,0-2.2c-0.6-1.7-1.6-3.3-2.3-4.9c-0.4-0.9-0.4-2-0.6-3c-0.2-0.8-0.4-1.5-0.7-2.3c-0.5,0.5-1,1-1.6,1.4
			c-0.2,0.2-0.9,0.2-0.9,0.1c-1.1-3.1-2.4-6.1-3.3-9.3c-1-3.3-0.7-7.5-2.7-9.8c-2.5-2.9-1-5.5-1.4-8.1c-0.1-0.4,1.5-1.3,1.6-1.3
			c2.7,2.9,8.4,2,9.1,7.4c0.1,0.7,1.6,1.5,2.6,1.7c4.3,0.9,7.4,3.2,10.4,6.4c2.7,2.8,6.8,4.3,10.1,6.5c4,2.7,7.8,5.7,11.7,8.5
			c0.6,0.4,1.1,1,1.6,1.5c0.2-0.8,0.5-1.7,0.5-2.5c0.2-4.9,0.2-9.7,0.4-14.6c0.1-1.2,0.6-2.3,1-3.4l0.2-0.1c0.8,1.6,2.1,3.1,2.2,4.7
			c0.3,5.7-0.2,11.5,0.4,17.2c0.5,4.5,2.2,8.8,3.3,13.2c0.2,1,0.4,2,0.3,2.9c-0.6,14.1,4,26.3,13.1,37.1c2.7,3.2,4.5,7.5,6.2,11.4
			c1.6,4,2.9,8.2,3.7,12.4c0.7,3.4,3.3,3.7,5,2.8c1.2-0.7,4.5-2.1,2.8-5.2c-0.1-0.2,0-0.8,0.2-1c4.7-2.5,2.2-7,2.9-10.6
			c0.1-0.6-0.9-1.8-1.7-2.2c-1.6-0.9-3.4-1.6-5.2-2.3c-3.6-1.4-6.3-3.5-6.5-7.9c0-1-0.9-1.9-1.4-2.9c-0.7-1.6-1.7-3.2-1.9-4.9
			c-0.1-1.2,0.6-3.4,1.5-3.7c1-0.4,2.7,0.7,3.9,1.3c2.5,1.3,4.8,2.8,7.3,3.9c0.4,0.2,2-1,2-1.5c-0.3-4.7-1-9.5-1.4-14.2
			c-0.2-3.4-0.1-6.8-0.2-10.1c-0.1-4.2-0.3-8.3-0.1-12.5c0.1-1.2,1.1-2.9,2.2-3.5c0.8-0.4,2.7,0.5,3.5,1.4
			c3.7,4.1,7.3,8.4,10.7,12.7c0.6,0.8,1.2,2.1,1.1,3c-0.8,6.3,2.7,11.6,4,17.4c0.7,3.2,1.6,6.4,1.6,9.7c0.1,2.5,0.3,3.8,3,4.9
			c7.4,3.2,9.5,10.3,6.1,18.2c-1,2.4-1.7,4.9-2.9,7.1c-0.4,0.7-2,0.9-3.1,0.9c-2.4,0.1-5.4,1.3-6.2-2.6c-0.1-0.5-1.3-0.7-2-1.1
			c-0.2,0.5-0.3,1-0.6,1.4c-0.5,0.8-1.1,1.5-1.7,2.3c-1.2,1.7-3.2,3.3-0.9,5.7c0.3,0.3,0.1,1.3,0.1,1.9c-0.6-0.2-1.3-0.2-1.7-0.6
			c-2-2.1-3.1-0.2-4,1c-0.4,0.5,0.6,1.9,0.6,2.9c0.1,1.7,0,3.5-0.1,5.2c0,0.7,0,1.4-0.1,2c0.6-0.3,1.2-0.5,1.7-0.9
			c1.4-1.3,2.7-2.6,4-3.9c0.4-0.4,0.8-0.8,1.2-1.2c1.5-1.4,3-2.8,4.5-4.3c-0.2,1.8-0.4,3.7-0.6,5.5c0,0.5,0,1.1,0.1,1.7
			c0.5-0.3,1.1-0.6,1.5-1c4-3.8,8.4-7.4,11.9-11.7c1.7-2,3.4-6.2,2.4-7.9c-2.5-4.5,0.7-6.6,2.6-9c1.8-2.5,2.6-4.4,0.8-7.2
			c-0.6-0.9,0.2-2.6,0.3-3.9c0.3-10-2.8-19.3-6.9-28.2c-5.1-11.1-12.4-20.8-20.7-29.8c-3.6-3.9-6.2-8.7-9-13.3
			c-0.7-1.2-0.2-3-0.3-4.6c0-0.2-0.4-0.6-0.6-0.7c-3.4-0.3-7.2,0.2-8.1-4.5c-0.1-0.4-0.6-1-1-1c-4.9-0.6-7-4.6-9.8-7.7
			c-0.2-0.4-0.4-0.8-0.6-1.2c3.5-2.8,4.8,0.6,6.7,2.3c2,1.8,3.5,4.4,6.9,4c0.7-0.1,1.8,1.1,2.2,1.9c1.3,2.6,3,3.6,6,2.9
			c2.6-0.7,4.7,0.2,6.2,2.9c0.7,1.4,2.7,2.4,4.3,2.9c8.6,2.5,17.3,4.4,25.9,7.1c8,2.5,13.7,7.7,17.7,15.3
			c5.6,10.6,6.9,21.9,7.9,33.4c0.1,1.4-0.3,2.8-0.4,4.2c-0.2,1.9-0.5,3.7-0.7,5.6c-0.1-1.6-0.1-3.2-0.4-4.7
			c-0.1-0.6-0.8-1.2-1.2-1.8c-0.1,0.6-0.3,1.3-0.2,1.9c0.3,2.9,1.2,5.8-1.8,8.1c-0.6,0.4-0.2,2.1-0.3,3.1c-0.6,5.4-0.6,11-1.9,16.3
			c-0.9,3.9-3.5,7.3-5.4,11c-0.1,0.2-0.5,0.3-0.4,0.4c2.1,5.3-3.7,6.2-5.3,9.4c-1.3,2.6-1.8,5.6-3.3,8.1c-1.7,2.8-3.9,5.3-6.2,7.7
			c-1.8,1.8-2.1,3.2-1.4,5.7c2.2,8.2-0.8,15.7-4.1,23c-3.8,8.3-7.8,16.6-11.9,24.8c-0.5,0.9-2.1,1.2-3.1,1.8
			c-0.7,0.5-1.2,1.1-1.8,1.7c0.5-0.1,1-0.3,1.5-0.3s1.4,0,1.6,0.3c0.2,0.4,0.1,1.2-0.2,1.6c-0.6,0.8-1.7,1.4-2.1,2.3
			c-1.1,2.6-1.7,5.4-3,7.8c-1.2,2.3-3.3,4-4.7,6.2c-0.6,0.9-0.3,2.3-0.6,3.4c-0.2,0.6-0.7,1.1-1,1.7c-0.2-0.6-0.4-1.2-0.5-1.9
			c-0.1-0.5-0.2-1-0.3-1.5c-0.4,0.3-0.8,0.6-1.1,1c-0.8,1.5-1.6,3-2.4,4.5c0,0.1,0.4,0.5,0.7,0.6c0.8,0.2,1.6,0.4,2.4,0.5
			c-0.6,1-1.1,2.9-1.8,3c-4.3,0.4-5,4.2-6.6,6.8c-2.8,4.5-4.5,9.7-6.9,14.5c-0.5,1.1-1.8,1.8-2.8,2.7c0.2-1.3,0.1-2.7,0.6-3.9
			c0.8-1.9,2-3.7,2.9-5.5c0.2-0.3-0.1-0.9-0.1-1.3c-0.5,0.2-1.1,0.3-1.4,0.7c-2.9,4.8-5.9,9.7-8.7,14.6c-3.6,6.4-5.8,13.7-11.2,19
			c-0.7,0.7-2.1,0.4-3.1,0.9c-0.7,0.3-1.7,1.2-1.6,1.7c0.2,2.1-0.1,3.4-2.6,3c-0.3,0-0.6,0.1-0.8,0.1c0.2,0.3,0.5,0.5,0.7,0.8
			c0.6,0.7,1.3,1.5,1.9,2.2c-2,0.8-3.9,1.7-5.9,2.6c-1,0.5-2.6,0.9-2.7,1.7c-0.5,1.9-0.3,4-0.4,6c-3.4,0-4.9,1.3-3.6,4.8
			c-0.4,0.6-0.8,1.2-1.2,1.8c-0.8,0.6-1.6,1.2-2.4,1.8c-0.5,0.2-1.2,0.3-1.6,0.7c-0.8,0.6-1.6,1.4-2.4,2.1c0.3,0.2,0.7,0.5,0.8,0.4
			c1.1-0.7,2.1-1.4,3.1-2.1c0.2-0.2,0.1-0.7,0.1-1.1c0.9,0.1,1.9,0.5,2.7,0.4c0.8-0.1,1.5-1.1,2.3-1.2c0.4,0,1.3,1.3,1.2,1.7
			c-0.3,0.9-1,1.9-1.8,2.5c-2.7,2-5.3,4-8.2,5.6c-4.4,2.5-8.9,4.8-13.5,6.8c-2.6,1.1-5.5,1.9-8.3,2.2s-5.7-0.2-8.5-0.4
			c-0.1,0-0.3-1.3,0-1.6c0.8-0.9,1.9-1.5,2.7-2.3c0.7-0.6,1.7-0.5,1.2-2.5c-0.8-3,2.8-2.1,4.6-2.5c1.6-0.4,3.4-0.1,4.8-0.7
			c1.6-0.7,2.8-2.1,4.2-3.3c1.5-1,3.1-2,4.6-2.9c-0.2-0.2-0.5-0.6-0.5-0.6C215.6,397.3,214.2,398.3,212.8,399.3z M130.6,320.2
			c-0.1,0-0.1,0-0.2,0c0.5,2.3,0.2,5.3,1.6,6.7c3.9,4,6.6,3.9,11.3,0.6c0.9-0.6,1.9-1.1,2.8-1.7c2.8-1.9,6.3-3.3,8.3-5.8
			c3.3-4.2,5.7-9.1,8.6-13.6c1.3-2,0.8-3.2-0.9-4.5c-0.9-0.6-1.9-1.3-2.3-2.2c-2.3-4.8-4.4-9.7-6.6-14.6c-0.2-0.4,0.1-1,0.1-1.5
			c0-0.4-0.1-1-0.4-1.3c-1.8-1.9-3.6-3.7-5.3-5.7c-1.3-1.4-1.8-3.5-4.4-1.1c-1.4,1.3-4.1,1.2-5.9,2.2c-1.5,0.7-3.4,1.8-4,3.2
			c-1.4,2.8-1.7,6.1-3.1,9c-1.3,2.9-2.8,5.4,0.1,8.2c0.5,0.5,0.3,1.7,0.3,2.6c-0.1,3.7-0.4,7.4-0.4,11.1
			C130.1,314.5,130.4,317.3,130.6,320.2z M151.9,266.1c0.4-0.5,0.8-0.9,1.2-1.4c2.1,1.2,4.2,2.3,6.3,3.6c4.7,2.7,9.5,5.3,14,8.3
			c1.9,1.3,2.3,1,2.7-0.8c1.4-6.1,3-12.1,4.2-18.2c0.2-1.1-0.4-3-1.2-3.4c-1.2-0.6-2.9-0.3-4.3,0c-1,0.2-1.7,1.5-2.6,1.8
			c-6.5,1.7-13.1,3.1-19.5,4.8c-1.4,0.4-2.6,1.5-3.9,2.2C149.7,264,150.8,265.1,151.9,266.1z M105.1,336.5c0.2,0,0.5,0,0.7,0
			c0,5.7,0,11.4,0,17.2c0,0.6,0.4,1.1,0.7,1.7c0.5-0.5,1.1-0.9,1.4-1.5c0.3-0.6,0.2-1.3,0.2-2c0.3-8.3,0.7-16.7,0.8-25
			c0.1-8.7-0.1-17.4-0.2-26.1c0-0.5-0.3-1.1-0.5-1.6c-0.4,0.5-1,1-1.1,1.5c-0.3,2.5-0.5,4.9-0.7,7.4
			C106,317.6,105.5,327,105.1,336.5z M275.8,237c4.7,0.7,7.8-4.4,8.5-8c0.3-1.5,1.2-2.8,1.8-4.3c0.4-1.1,0.7-2.2,1-3.3
			c-1,0.3-2.5,0.3-3.1,1c-2.2,3-4.2,6.1-6.2,9.3c-0.2,0.4,0.3,1.2,0.4,1.8c0.1,0.7,0.2,1.4,0.3,2.1c-0.8,0-1.7,0.1-2.4-0.1
			c-0.8-0.2-1.5-1.1-2.4-1.2c-0.6-0.1-1.3,0.6-1.9,0.9c0.4,0.5,0.7,1.3,1.2,1.6C273.9,237.1,274.8,236.9,275.8,237z M254.8,344.6
			c1-0.9,2.1-1.7,3-2.8c0.7-0.8,1.1-1.9,1.6-2.8c-0.3-0.1-0.6-0.2-0.8-0.1c-1,0.6-2,1.3-3,2c-0.5,0.3-0.8,0.8-1.3,1.1
			c-0.7,0.4-1.5,0.7-2.3,1C252.9,343.5,253.8,344,254.8,344.6z M278.5,226.4c0.8-1.5,1.4-2.8,2-4c0.1-0.2-0.1-0.6-0.2-0.8
			c-1.1,0.9-2.2,1.7-3.2,2.7C277,224.4,277.9,225.4,278.5,226.4z M242.1,364.1c-0.6,1.2-1.1,2.1-1.5,2.9c0,0.1,0.4,0.4,0.6,0.6
			c0.6-0.7,1.3-1.4,1.8-2.2C243,365.4,242.5,364.9,242.1,364.1z M288.9,214.4c0.8-1.1,1.4-2,2-3c0-0.1-0.5-0.5-0.7-0.7
			c-0.7,1.1-1.3,2.1-2,3.2C288.2,213.8,288.5,214.1,288.9,214.4z"/>
		<path d="M383.7,330c0-5.2,0.1-10.5-0.1-15.7c-0.1-2.1-0.9-4.2-1-6.4c0-0.9,1.1-1.8,1.7-2.7c0.5,0.8,1.4,1.6,1.5,2.5
			c0.2,1.6-0.1,3.2-0.1,4.8c0,0.4,0.2,0.9,0.3,1.3c0.1-0.4,0.4-0.9,0.4-1.3c0.2-5.1,0.7-10.3,0.6-15.4c0-1.7-1.4-3.4-2-5.2
			c-0.2-0.6,0.1-1.3,0.2-2c0.5,0.2,0.9,0.6,1.4,0.7c0.6,0.1,1.1-0.1,1.7-0.2c-0.8-2.1,2.4-5.1-1.6-6.7c-0.8-0.3-1.5-2.7-1.2-3.9
			c0.5-1.8,1.8-3.5,2.9-5.1c0.2-0.3,1.6-0.3,1.8,0c4.7,7.3,5.6,15.2,2.8,23.4c-0.4,1.1-0.6,3.8-3,1.6c-0.1-0.1-0.5,0-0.7,0.1
			c-1.1,1.1-0.3,8.2,0.4,9.5c0.5,0.9-0.1,2.4-0.1,3.7c0,0.7,0.3,1.4,0.4,2.2c0.3-0.6,0.7-1.1,1-1.7s0.3-1.4,0.7-2
			c0.3-0.5,0.9-0.9,1.4-1.3c0,0.5-0.2,1.2,0,1.6c0.7,1.2,1.7,2.3,2.4,3.5c0.3,0.6,0.6,1.7,0.3,2c-2.2,2.3-1.3,4.9-1,7.6
			c0.5,4,0.4,8,0.8,12c0.4,4.5,1.1,9,1.6,13.5c0.1,1.3-0.2,2.5-0.3,3.8c-0.1,1.1-1.8,3,1.3,2.2c0.2,0,0.8,0.9,0.9,1.5
			c1,5.7,1.7,11.5,3,17.1c1.5,6.4,3.3,12.9,5.7,19c1.5,3.7,4.6,6.7,6.7,10.2c2.1,3.6,4.3,7.3,5.7,11.2c1.1,3,2.2,6.6,1.6,9.6
			c-1.1,5.9-2.4,12.2-5.2,17.4c-2.2,4-7.6,5.6-12.3,6.8c-1.2,0.3-2.2,1-3.3,1.6c-2.6,1.5-5,3.2-8.1,1.1c-0.8-0.6-2.3-0.3-3.5-0.3
			c-6.3-0.1-10.7-4.2-15.8-7c-1.9-1-4.2-1.4-6.3-2c-0.9-0.3-2-0.3-2.6-0.9c-2.5-2.4-4.6-5.3-7.3-7.3c-2.3-1.6-5.3-2.5-8.1-3.3
			c-3.5-0.9-7.3-0.9-10.5-2.3c-8.2-3.5-16.3-7.4-24.2-11.5c-5-2.6-9.4-6.2-14.3-9.1c-8.5-5.1-11.4-13.5-13.6-22.3
			c-1.1-4.3-2.7-8.6-2.9-12.9c-0.3-6.8-0.6-13.8,0.8-20.4c2.9-14.1,8.3-27.5,14.8-40.3c4.2-8.3,8.8-16.5,12.5-25
			c1.9-4.3,2.2-9.2,3.4-13.9c0.4-1.5,0.7-3.2,1.7-4.4c0.9-1.2,2.5-1.9,3.8-2.8c0.8,1.4,2.3,2.7,2.4,4.2c0.8,10.1,1.3,20.1,1.9,30.2
			c0,0.6,0.2,1.1,0.3,1.7c0.6-0.2,1.2-0.3,1.8-0.6c4.6-2.7,6.7-7,8.2-11.9c0.7-2.4,2.3-4.4,3.4-6.7c4.2-8.2,6.9-16.9,6.5-26.2
			c-0.1-3.3-1.2-6.6-1.6-9.9c-0.5-3.5,2.4-4.4,4.8-5c1.1-0.3,3.1,0.8,3.9,1.9c3.2,3.9,6.2,8.1,9.2,12.2c5.2,7.2,3.6,16.9-3.2,22.3
			c-2.2,1.7-4.3,3.9-5.8,6.3c-4.4,7-8.5,14.1-12.4,21.3c-1.5,2.7,0.3,4.6,3.4,4.1c2.8-0.5,5.7-0.6,8.4-1.5c1.2-0.4,2.2-2.1,2.6-3.5
			c1.4-4.3,2.2-8.8,3.8-13c0.4-1,3.2-1.6,4.7-1.3c1.7,0.3,4,1.3,4.7,2.7c3,6.1,5.5,12.5,8,18.8c2.1,5.2,4.1,10.5,5.8,15.9
			c0.6,2,0.3,4.3,0.5,6.5c0,0.4,0.4,0.8,0.6,1.2c0.1-0.4,0.3-0.7,0.3-1.1c0.1-1.6,0.2-3.2,0.3-4.8C383.4,330,383.6,330,383.7,330z
			 M350.6,336.3c-0.4-0.1-1.8-0.5-3.1-1c0.9-1,1.7-2,2.6-2.9c2.2-2.2,4.7-4.2,6.4-6.7c0.5-0.8-1.1-3.1-1.9-4.7
			c-0.1-0.2-1.4,0.2-2.2,0.3c0.4,1.6-3.2,3.5,0.5,4.8c-0.5,0.9-0.8,2-1.5,2.5c-1.5,1.2-3.8,1.6-4.7,3.1c-3,4.8-7.1,7.1-12.5,8.1
			c-4,0.8-7-0.6-7.8-4.6c-0.8-4.2-1.6-8.4-2.4-12.5c-0.1-0.5-0.5-1-0.8-1.5c-0.3,0.5-0.6,0.9-0.8,1.4c-1.5,3.3-3,6.7-4.6,10
			c-1.8,3.7-4.8,7.1-5.5,11c-1.6,9.3,1.1,17.8,8.4,24.2c5.6,5,11.7,9.5,17.7,14.2c2.4,1.9,4.9,3.2,8.4,3.3s6.9,3,10.3,3
			c4.3,0,9-0.9,13-2.7c5.2-2.2,6.4-7.9,8.8-12.5c1.2-2.3,2.7-4.7,3.1-7.2c0.6-3.3,0.4-6.7,0.5-10c0-1.3-0.1-2.6-0.2-3.8
			c-1.2,0.3-2.4,0.7-3.6,0.8c-1.5,0.1-3.6,0.5-4.4-0.3c-3.6-3.6-6.9-7.5-10.3-11.3c-1.7-1.9-3.2-4.5-5.3-5.4
			C356.8,334.8,354.1,335.9,350.6,336.3z M382.7,346.4c-0.1-0.8-0.3-1.8-0.5-2.8c-0.2,0.5-0.6,1-0.6,1.5c0,1.4,0.2,2.8,0.3,4.3
			C382.2,348.4,382.4,347.5,382.7,346.4z M385.3,322.2c0.1,0.9,0.3,1.6,0.4,2.3c0.2-1.2,0.5-2.5,0.6-3.7c0-0.4-0.2-0.8-0.3-1.2
			C385.7,320.4,385.5,321.3,385.3,322.2z"/>
		<path d="M269.2,41.6c-0.4-1-0.7-1.9-1.1-2.9c0.8-0.2,1.8-0.2,2.5-0.7c2.2-1.3,4.5-2.6,6.4-4.3c3-2.7,6.1-5.4,8.6-8.6
			c2.3-2.9,3.9-6.4,5.5-9.7c0.4-0.8,0.2-2.8-0.4-3.1c-4.2-2.2-0.8-4.6-0.1-6.7c1-3.1,2.7-6.4,6.6-5.4c3.3,0.8,6.8,2.4,9.5,4.5
			c5.9,4.5,9.1,10.6,10.2,18.1c0.8,5.5,3.2,10.8,4.1,16.4c0.6,3.8,0,7.9-0.4,11.8c-0.4,4-1.3,8-2.1,12c-0.2,0.9-1.2,2.4-1.4,2.3
			c-3-1-6.2-1.9-8.8-3.6c-1.8-1.1-2.8-3.4-4.1-5.2c-2.1-2.8-4.1-5.6-6.2-8.4c-0.2-0.3-1.1,0-1.6,0c-0.7,0-1.6,0.1-2.1-0.2
			c-2.2-1.4-4-3.5-6.4-4.1c-2.2-0.6-5.3-0.4-7.3,0.8c-6.6,4-12.8,8.6-17.2,15.2c-0.4,0.6-2,1.1-2.4,0.9c-0.8-0.6-1.1-1.8-1.6-2.7
			c0.8,0,1.5,0.1,2.3,0.1c0.3,0,0.5,0,0.8,0.1c-0.1-0.3-0.1-0.9-0.3-1c-2.6-1.4-3.3-2.5,0.1-3.9c0.5-0.2,0.2-2.5,0.2-3.8
			c1.2-1.5,5.6-0.9,3-4.8l0,0c3.8,0.3,4.8-0.3,4.2-2.4C269.6,42,269.4,41.8,269.2,41.6z"/>
		<path d="M263.2,92.5c0.2,0.4,0.4,0.8,0.6,1.2c-1.1,1-2.2,2.9-3.4,3c-2.3,0.2-4.8-0.4-7.1-1.2c-0.6-0.2-0.7-2.2-0.7-3.4
			c0-1,0.3-2.1,0.7-3.1c0.4-0.9,1-1.6,1.5-2.4c0.7,0.8,1.3,1.7,2,2.5c0.3,0.4,0.6,0.9,1,1.1C259.6,91.1,261.4,91.8,263.2,92.5z"/>
		<path d="M228.7,93.6c-1.8,1.5-2.9,2.4-4,3.3c-0.7-1-2.3-2.2-2.1-2.9c0.3-1.2,1.6-2.3,2.8-3C225.8,90.8,227.1,92.2,228.7,93.6z"/>
		<path d="M237.3,387.3c2.8-3.4,5.6-6.8,8.5-10.1c0.1,0.8,0.6,1.8,0.3,2.2c-2.8,3.3-5.8,6.5-8.7,9.8l0,0
			C237.4,388.5,237.4,387.9,237.3,387.3z"/>
		<path d="M244.7,88.8c1.5-1.6,2.6-2.8,3.7-4c0.6,0.6,1.8,1.5,1.7,1.7c-0.8,1.6-1.9,3.1-2.9,4.6C246.5,90.5,245.9,89.9,244.7,88.8z"
			/>
		<path d="M239.6,97.5c-0.5-0.8-1.5-1.8-1.3-2.3c0.4-1,1.5-1.7,2.3-2.5c0.8,0.8,2.2,1.5,2.3,2.5c0.2,1.1-0.7,2.4-1,3.7
			C241.1,98.4,240.4,98,239.6,97.5z"/>
		<path d="M262,48.8c-0.5,0.1-1,0.2-1.5,0.5c-0.8,0.5-1.6,1.1-2.4,1.7c0.3-0.8,0.3-1.9,0.8-2.5c1.4-1.4,3.1-2.6,4.7-3.9
			c0.1,0.1,0.2,0.1,0.3,0.2C263.3,46,262.6,47.4,262,48.8z"/>
		<path d="M258.4,64.9c0.5,2.8-2.9,6.9-5.8,6.8c-0.4,0-0.8-0.3-1.2-0.5c0.3-0.5,0.7-1,1-1.5c1.4-1.2,2.8-2.4,4.2-3.6
			C257.2,65.7,257.8,65.3,258.4,64.9z"/>
		<path d="M258.4,64.9c-0.6,0.4-1.2,0.8-1.8,1.2c-1.2,0.6-2.4,1.2-3.6,1.8c0.7-1.8,1.3-3.8,2.3-5.5c0.3-0.4,2-0.3,2.8,0
			C258.5,62.7,258.3,64.1,258.4,64.9z"/>
		<path d="M243.3,109.3c0.6-2.2,1.2-4.5,1.8-6.7c0.2,0.2,0.5,0.5,0.7,0.7c1.5,2.8,0.2,4.6-2.3,5.9
			C243.6,109.2,243.3,109.3,243.3,109.3z"/>
		<path d="M215.1,96.7c0.8,1.3,1.7,2,1.7,2.8c0,0.5-1,1.1-1.5,1.7c-0.7-0.8-1.6-1.4-2.1-2.3C213.1,98.7,214.1,97.9,215.1,96.7z"/>
		<path d="M269.2,41.6c0.2,0.2,0.4,0.4,0.6,0.6c-1.4,0.8-2.8,1.6-4.2,2.4l0,0c-0.6,0-1.1,0.1-1.7,0.1c-0.1-0.1-0.2-0.1-0.3-0.2
			C264.2,41,266.6,41.1,269.2,41.6z"/>
		<path d="M84.2,368.2c-1,1-2,1.8-2.9,2.7c-0.2-0.4-0.7-0.9-0.6-1.2c0.6-1.5,1.3-2.9,2-4.3C83.1,366.2,83.5,367,84.2,368.2z"/>
		<path d="M236.1,95.5c-1.1,1-1.9,2.1-2.1,1.9c-0.9-0.4-1.5-1.2-2.3-1.9c0.5-0.5,1.1-1.4,1.6-1.4C234.1,94.2,234.8,94.9,236.1,95.5z
			"/>
		<path d="M296.7,221.4c-0.4,0.4-0.8,0.8-1.2,1.2c-0.7-0.7-1.4-1.5-2.1-2.2c0.7-0.5,1.3-1,2-1.5
			C295.9,219.7,296.3,220.5,296.7,221.4z"/>
		<path d="M263.2,358.3c1.3,0.5,2.1,0.8,3,1.1c-0.9,0.4-1.8,1.2-2.7,1.3c-0.9,0.1-1.9-0.5-2.8-0.7
			C261.5,359.4,262.3,358.8,263.2,358.3z"/>
		<path d="M246.1,72.8c-0.4,1.4-0.7,2.6-1.2,3.7c0,0.1-0.8-0.1-1.2-0.1c0.4-1.8,0.9-3.5,1.3-5.3c0,0,0.7,0,0.7,0.1
			C246,71.8,246,72.4,246.1,72.8z"/>
		<path d="M252.6,79.4c-1.7,0.8-2.8,1.4-3.9,1.8c-0.1,0-0.8-1-0.7-1.2c0.6-0.8,1.3-1.6,2.2-1.9C250.6,77.9,251.5,78.7,252.6,79.4z"
			/>
		<path d="M206.4,402.1c-0.4-0.5-0.7-0.8-1.1-1.2c1.3-0.8,2.5-1.7,3.8-2.4c0.2-0.1,0.8,0.3,1.2,0.4C209.1,400,207.9,401,206.4,402.1
			z"/>
		<path d="M267.9,349.5c-0.8,1.2-1.5,2.3-2.3,3.5c-0.3-0.4-0.9-0.9-0.8-1.2c0.6-1.5,1.3-2.9,2-4.3
			C267.1,348,267.4,348.6,267.9,349.5z"/>
		<path d="M232,393.3c0.4-0.6,0.8-1.2,1.2-1.8c1.4-0.8,2.8-1.6,4.2-2.4l0,0C235.6,390.5,233.8,391.9,232,393.3z"/>
		<path d="M383,301.1c0.4-1,0.8-2,1.2-2.9c0.6,0.4,1.7,1.1,1.6,1.3c-0.5,1.2-1.2,2.2-1.9,3.3C383.7,302.2,383.4,301.7,383,301.1z"/>
		<path d="M245.8,103.3c-0.2-0.2-0.5-0.5-0.7-0.7c0.1-0.4,0.2-0.8,0.2-1.1c0.1-0.7,0.1-1.4,0.2-2.1c0.5,0.1,1.3,0.1,1.3,0.2
			c0.2,0.8,0.3,1.7,0.1,2.4C246.9,102.5,246.3,102.9,245.8,103.3z"/>
		<path d="M254.2,54.1c-0.7,1.8-1.4,3.6-2.1,5.4c-0.1,0.2-0.7,0.2-1,0.3c0-0.3-0.1-0.7,0.1-1C252.1,57.2,253.2,55.7,254.2,54.1
			C254.2,54.2,254.2,54.1,254.2,54.1z"/>
		<path d="M254.2,54.2c0.2-0.4,0.3-0.7,0.6-1.1c0.4-0.5,0.9-1,1.4-1.5c0.1,0.3,0.3,0.7,0.2,1c-0.3,1-0.6,2.1-0.9,3.1
			C255,55.2,254.6,54.7,254.2,54.2C254.2,54.1,254.2,54.2,254.2,54.2z"/>
		<path d="M2.5,333.4c-0.7,0.3-1.4,0.6-2,0.9c-0.2-0.4-0.3-0.8-0.5-1.3C0.8,333.2,1.6,333.3,2.5,333.4L2.5,333.4z"/>
		<path d="M284.2,325.5c-0.7,0.6-1.2,1-1.7,1.3c-0.2-0.4-0.7-0.9-0.5-1.2c0.2-0.5,0.7-0.9,1.2-1.1
			C283.2,324.5,283.7,325,284.2,325.5z"/>
		<path d="M85.9,364.3c-0.3,0.4-0.6,0.7-0.9,1c-0.3-0.5-0.8-1.1-0.8-1.6c0-0.4,0.5-0.8,0.7-1.3C85.2,363,85.5,363.6,85.9,364.3z"/>
		<path d="M241.1,81.6c0.4-0.6,0.7-1.2,1.1-1.8c0.2,0.5,0.8,1.1,0.7,1.5c-0.1,0.7-0.7,1.3-1,1.9C241.6,82.8,241.4,82.3,241.1,81.6z"
			/>
		<path d="M249.2,382.5c-0.8,0.5-1.4,1-2,1.4c-0.2-0.3-0.6-0.8-0.5-0.8c0.5-0.6,1-1,1.6-1.5C248.6,381.7,248.8,382,249.2,382.5z"/>
	</g>
</g>
</svg>
